# xmcd
#
# Track frame offsets:
# 150
# 12100
# 26475
# 37145
# 49432
# 62185
# 76555
# 92177
# 102625
# 113422
# 126152
# 143662
# 156082
# 170637
# 187797
# 199310
# 210682
# 225902
# 236457
# 249855
# 264497
# 274545
# 285822
# 306690
#
# Disc length: 4371 seconds
#
#
# Revision: 4
# Processed by: cddbd v1.5.2PL0 Copyright (c) Steve Scherf et al.
# Submitted via: FreeRIP 2.40 
#
DISCID=43111118
DTITLE=Lonnie Johnson - The Complete Folkways Recordings
DYEAR=1993
DGENRE=Blues
TTITLE0=Raise the Window High
TTITLE1=Tears Don't Fall No More
TTITLE2=Long Road to Travel
TTITLE3=Old Rocking Chair
TTITLE4=You Have My Life in Your Hands
TTITLE5=Lazy Mood
TTITLE6=Mister Trouble
TTITLE7=How Deep Is the Ocean
TTITLE8=Pouring Down Rain
TTITLE9=Prisoner of Love
TTITLE10=Careless Love
TTITLE11=Juice Headed Baby
TTITLE12=Teardrops in My Eyes
TTITLE13=Looking for a Sweetie
TTITLE14=I've Been a Fool Myself
TTITLE15=What a Difference a Day Makes
TTITLE16=That Lonesome Road
TTITLE17=I Can't Believe
TTITLE18=When You Always by Yourself
TTITLE19=My Mother's Eyes
TTITLE20=Summertime
TTITLE21=C. C. Rider
TTITLE22=The Entire Family Was Musicians
TTITLE23=Falling Rain Blues
EXTD=
EXTT0=
EXTT1=
EXTT2=
EXTT3=
EXTT4=
EXTT5=
EXTT6=
EXTT7=
EXTT8=
EXTT9=
EXTT10=
EXTT11=
EXTT12=
EXTT13=
EXTT14=
EXTT15=
EXTT16=
EXTT17=
EXTT18=
EXTT19=
EXTT20=
EXTT21=
EXTT22=
EXTT23=
PLAYORDER=
